<svg xmlns="http://www.w3.org/2000/svg" viewBox="0 0 1000 400">
  <defs>
    <linearGradient id="paper" x1="0" x2="1" y1="0" y2="1"><stop offset="0" stop-color="#fff1c9"/><stop offset="1" stop-color="#d9b875"/></linearGradient>
    <filter id="shadow" x="-20%" y="-20%" width="140%" height="140%"><feDropShadow dx="0" dy="8" stdDeviation="6" flood-color="#1f241d" flood-opacity=".24"/></filter>
  </defs>
  <rect width="1000" height="400" fill="#cda96b"/>
  <g fill="url(#paper)" stroke="#8b6836" stroke-width="6">
    <rect x="3" y="3" width="194" height="194" rx="12"/><rect x="203" y="3" width="194" height="194" rx="12"/><rect x="403" y="3" width="194" height="194" rx="12"/><rect x="603" y="3" width="194" height="194" rx="12"/><rect x="803" y="3" width="194" height="194" rx="12"/>
    <rect x="3" y="203" width="194" height="194" rx="12"/><rect x="203" y="203" width="194" height="194" rx="12"/><rect x="403" y="203" width="194" height="194" rx="12"/><rect x="603" y="203" width="194" height="194" rx="12"/><rect x="803" y="203" width="194" height="194" rx="12"/>
  </g>
  <g transform="translate(100 100)" filter="url(#shadow)"><path d="M-55-50h110l28 32v78l-28 32H-55L-83 60v-78z" fill="#78231f" stroke="#d8a13b" stroke-width="8"/><path d="M-36-4c6-38 35-51 54-28 16-6 35 9 32 29 18 9 18 38 0 50-21 15-66 10-85-10-12-13-13-29-1-41z" fill="#d64234" stroke="#551914" stroke-width="7"/><path d="M-10-58l-12 39M22-58 8-21M51-42 28-10M-52-35l26 26" stroke="#ffb15a" stroke-width="8" stroke-linecap="round"/></g>
  <g transform="translate(300 100)" filter="url(#shadow)"><path d="M-55-50h110l28 32v78l-28 32H-55L-83 60v-78z" fill="#20466f" stroke="#a7c7e7" stroke-width="8"/><path d="M-24 34c-35-13-47-49-21-71 18-15 40 2 27 27-10 20-1 39 18 44z" fill="#7fc6ee" stroke="#153149" stroke-width="7"/><path d="M24 34c35-13 47-49 21-71-18-15-40 2-27 27 10 20 1 39-18 44z" fill="#7fc6ee" stroke="#153149" stroke-width="7"/><path d="M-30 34c15 23 45 23 60 0" fill="none" stroke="#d7efff" stroke-width="12" stroke-linecap="round"/></g>
  <g transform="translate(500 100)" filter="url(#shadow)"><path d="M-55-50h110l28 32v78l-28 32H-55L-83 60v-78z" fill="#285c34" stroke="#b5c38f" stroke-width="8"/><path d="M0-58 54-36v45c0 37-28 61-54 75-26-14-54-38-54-75v-45z" fill="#d6d1c2" stroke="#4e514b" stroke-width="8"/><path d="M0-47v116c21-13 38-32 38-60v-34z" fill="#a8a89e"/><path d="M-47 57h38v34h-46c-9 0-14-5-14-14 0-12 8-20 22-20zM47 57H9v34h46c9 0 14-5 14-14 0-12-8-20-22-20z" fill="#6c6c64" stroke="#2f332e" stroke-width="6"/></g>
  <g transform="translate(700 100)" filter="url(#shadow)"><path d="M-55-50h110l28 32v78l-28 32H-55L-83 60v-78z" fill="#a3541a" stroke="#f0a43a" stroke-width="8"/><path d="M-57 13c29-9 54-26 75-51 16-2 31 7 42 28l28 12-25 13-11 34-17-22-37 34-23-6 9-31-33 2z" fill="#c98332" stroke="#5a3014" stroke-width="7" stroke-linejoin="round"/><path d="M-53-31h32M-71-2h40M-63 31h34" stroke="#ffd680" stroke-width="7" stroke-linecap="round"/></g>
  <g transform="translate(900 100)" filter="url(#shadow)"><path d="M-55-50h110l28 32v78l-28 32H-55L-83 60v-78z" fill="#4a2e74" stroke="#d9b357" stroke-width="8"/><path d="M-40-6h80v58h-80z" fill="#ded0ac" stroke="#523b6d" stroke-width="7"/><path d="M-27-23v26M27-23v26" stroke="#9d78cf" stroke-width="12" stroke-linecap="round"/><path d="M-42-44c38-28 80-15 87 18-35 2-62 13-87 42z" fill="#f1f1e8" stroke="#3d3151" stroke-width="7"/><path d="M-2-36c31 0 48 10 52 28" stroke="#5b4a68" stroke-width="5" fill="none"/><path d="M-4 30h8M-25 30h8M17 30h8M-4 12h8M-25 12h8M17 12h8" stroke="#927d57" stroke-width="8"/></g>
  <g transform="translate(100 300)" filter="url(#shadow)"><path d="M-44-15c0-42 88-42 88 0v45c0 38-88 38-88 0z" fill="#8ea260" stroke="#3d4e2c" stroke-width="7"/><circle cx="0" cy="-20" r="25" fill="#f6ead3" stroke="#3d4e2c" stroke-width="6"/><circle cx="0" cy="-20" r="9" fill="#3e2b1d"/><path d="M-45-25-72-38l15 35M45-25l72-13-15 35M-35 44h70M-50 26h-31M50 26h31" stroke="#3d4e2c" stroke-width="10" stroke-linecap="round"/></g>
  <g transform="translate(300 300)" filter="url(#shadow)"><path d="M-51 15c14-37 66-46 95-11 14 17 4 55-32 60-35 5-76-12-63-49z" fill="#b67332" stroke="#4f2e17" stroke-width="7"/><circle cx="-42" cy="-13" r="28" fill="#c98540" stroke="#4f2e17" stroke-width="7"/><path d="M-60-39l-20-31M-43-42l-3-36M-21-36l20-27M-58-39l-32 6M-43-42l-20-23M-21-36l5-29" stroke="#4f2e17" stroke-width="7" stroke-linecap="round"/><path d="M-61 56v38M-11 62v36M31 54v37" stroke="#4f2e17" stroke-width="9" stroke-linecap="round"/><circle cx="-50" cy="-17" r="5" fill="#1f241d"/></g>
  <g transform="translate(500 300)" filter="url(#shadow)"><path d="M-58 8c15-44 91-51 118-10 23 35-8 79-58 79-50 0-73-31-60-69z" fill="#e5d9b7" stroke="#5c4a35" stroke-width="7"/><circle cx="-39" cy="-14" r="32" fill="#dac79a" stroke="#5c4a35" stroke-width="7"/><path d="M-60-26c-34-21-34 38 0 36M-18-26c34-21 34 38 0 36" fill="none" stroke="#9b7445" stroke-width="12" stroke-linecap="round"/><path d="M-45 62v34M8 67v31M45 54v37" stroke="#5c4a35" stroke-width="9" stroke-linecap="round"/><circle cx="-42" cy="-16" r="5" fill="#1f241d"/></g>
  <g transform="translate(700 300)" filter="url(#shadow)"><path d="M-72 8c18-42 104-50 139-12 26 29 6 74-47 82-49 8-111-23-92-70z" fill="#b28a7e" stroke="#4f3730" stroke-width="7"/><path d="M-40-24c18 28 17 68-3 96M-4-31c15 30 15 70-1 100M32-24c14 27 12 59-5 86" stroke="#6c4b42" stroke-width="6" fill="none"/><path d="M-70 11l-32 20 32 12M66 2l31-15-14 33M-44 72v23M19 78v20" stroke="#4f3730" stroke-width="8" stroke-linecap="round"/><circle cx="-66" cy="10" r="5" fill="#1f241d"/></g>
  <g transform="translate(900 300)" filter="url(#shadow)"><path d="M-45 36c8-64 78-64 90 0 6 34-17 62-45 62s-51-28-45-62z" fill="#5a3420" stroke="#2c1d14" stroke-width="7"/><path d="M-45-19c28-44 86-31 100 11-39-6-65 3-91 33z" fill="#f5f2df" stroke="#2c1d14" stroke-width="7"/><path d="M20-18l50 12-45 18z" fill="#e1a12f" stroke="#2c1d14" stroke-width="7"/><circle cx="-3" cy="-9" r="5" fill="#1f241d"/><path d="M-18 93l-16 25M18 93l16 25" stroke="#d59d2f" stroke-width="9" stroke-linecap="round"/></g>
</svg>
