<svg xmlns="http://www.w3.org/2000/svg" viewBox="0 0 128 128">
  <defs>
    <linearGradient id="body" x1="31" x2="100" y1="58" y2="115"><stop stop-color="#8a532c"/><stop offset="1" stop-color="#3f2416"/></linearGradient>
    <filter id="s" x="-20%" y="-20%" width="140%" height="140%"><feDropShadow dx="0" dy="5" stdDeviation="3" flood-color="#17100c" flood-opacity=".4"/></filter>
  </defs>
  <g filter="url(#s)" stroke="#17120f" stroke-linejoin="round" stroke-linecap="round">
    <path fill="#f4f1e8" stroke-width="5" d="M34 36c14-22 49-25 70-5l-8 24 12 16-29 3-30-14z"/>
    <path fill="url(#body)" stroke-width="5" d="M49 58c10 17 24 27 52 25l-8 29-45-3-19-27z"/>
    <path fill="#3d2417" stroke-width="5" d="M28 69l28-8 25 46-35 4-22-22z"/>
    <path fill="#f1ae2f" stroke-width="5" d="M89 49l31 6-27 13z"/>
    <path fill="#f4c150" stroke-width="3" d="M92 58l23 1-20 9z"/>
    <circle cx="82" cy="43" r="4" fill="#111"/>
    <path fill="none" stroke="#ffffff" stroke-width="4" d="M45 41c13-11 31-14 47-6M55 52l22 6"/>
    <path fill="none" stroke="#d08a23" stroke-width="4" d="M60 112l-5 10M78 112l-4 10M91 110l6 10"/>
  </g>
</svg>
