<svg xmlns="http://www.w3.org/2000/svg" viewBox="0 0 128 128">
  <defs>
    <linearGradient id="shell" x1="18" x2="114" y1="43" y2="112"><stop stop-color="#c8928a"/><stop offset=".55" stop-color="#9a6662"/><stop offset="1" stop-color="#5d3937"/></linearGradient>
    <filter id="s" x="-20%" y="-20%" width="140%" height="140%"><feDropShadow dx="0" dy="5" stdDeviation="3" flood-color="#1e1210" flood-opacity=".4"/></filter>
  </defs>
  <g filter="url(#s)" stroke="#221513" stroke-linejoin="round" stroke-linecap="round">
    <path fill="url(#shell)" stroke-width="5" d="M18 83c3-31 28-49 62-44 24 4 37 19 35 41-3 27-36 36-69 31-18-2-30-10-28-28z"/>
    <path fill="none" stroke="#714743" stroke-width="5" d="M37 47c-5 20-4 43 9 63M56 40c-4 25-2 53 8 72M76 42c-2 22 1 47 12 64M96 52c1 18 3 31 10 41"/>
    <path fill="#c99a91" stroke-width="4" d="M20 84l-12-5 9-9 15 7z"/>
    <path fill="#7c4c49" stroke-width="4" d="M108 78l14 6-13 9z"/>
    <circle cx="28" cy="75" r="3.5" fill="#111"/>
    <path fill="none" stroke="#e1b8af" stroke-width="4" d="M43 55c17-7 39-5 54 8"/>
    <path fill="none" stroke="#2b1915" stroke-width="4" d="M39 110v9M62 112v9M89 108v9"/>
  </g>
</svg>
