<svg xmlns="http://www.w3.org/2000/svg" viewBox="0 0 128 128">
  <defs>
    <linearGradient id="skin" x1="30" x2="102" y1="20" y2="115"><stop stop-color="#b7ca77"/><stop offset=".55" stop-color="#789653"/><stop offset="1" stop-color="#4f6137"/></linearGradient>
    <filter id="s" x="-20%" y="-20%" width="140%" height="140%"><feDropShadow dx="0" dy="5" stdDeviation="3" flood-color="#12180d" flood-opacity=".4"/></filter>
  </defs>
  <g filter="url(#s)" stroke="#182012" stroke-linejoin="round" stroke-linecap="round">
    <path fill="url(#skin)" stroke-width="5" d="M31 51c3-24 21-36 43-31 23 5 34 24 28 50l7 23-18 20-49 2-23-22z"/>
    <path fill="#6f8748" stroke-width="5" d="M33 78L16 97l18 14zM97 76l17 19-19 14z"/>
    <circle cx="65" cy="54" r="22" fill="#f5eacb" stroke-width="5"/>
    <circle cx="65" cy="54" r="11" fill="#8a5425"/>
    <circle cx="65" cy="54" r="5" fill="#111"/>
    <path fill="#f7f2e5" stroke-width="3" d="M43 80l8 9 8-9zM73 80l8 9 8-9z"/>
    <path fill="#7d4c24" stroke-width="5" d="M42 91h44v24H42z"/>
    <path fill="none" stroke="#c4d787" stroke-width="4" d="M42 39c10-15 29-18 44-4"/>
  </g>
</svg>
