<svg xmlns="http://www.w3.org/2000/svg" viewBox="0 0 128 128">
  <defs>
    <linearGradient id="purple" x1="43" x2="103" y1="38" y2="92"><stop stop-color="#a779df"/><stop offset="1" stop-color="#4b217d"/></linearGradient>
    <filter id="s" x="-20%" y="-20%" width="140%" height="140%"><feDropShadow dx="0" dy="5" stdDeviation="3" flood-color="#17101f" flood-opacity=".4"/></filter>
  </defs>
  <g filter="url(#s)" stroke="#17131f" stroke-linejoin="round" stroke-linecap="round">
    <path fill="#f4f0e4" stroke-width="5" d="M26 51l36-29 35 28-28 8-12 22z"/>
    <path fill="url(#purple)" stroke-width="5" d="M49 65l23-10 35 12-20 23-38-4z"/>
    <path fill="#e0a12b" stroke-width="4" d="M65 59l40-7-16 12zM72 56l36 1-18 10z"/>
    <path fill="#e9c58a" stroke-width="5" d="M28 82h72v35H28z"/>
    <path fill="#8b6a46" d="M38 91h12v9H38zM58 91h12v9H58zM78 91h12v9H78zM38 106h12v7H38zM58 106h12v7H58zM78 106h12v7H78z"/>
    <circle cx="79" cy="45" r="3.5" fill="#111"/>
    <path fill="none" stroke="#fff3a3" stroke-width="4" d="M64 73v20M54 83h20"/>
  </g>
</svg>
