<svg xmlns="http://www.w3.org/2000/svg" viewBox="0 0 128 128">
  <g fill="none" stroke="#21140f" stroke-width="5" stroke-linejoin="round" stroke-linecap="round">
    <path fill="#8f1d18" d="M45 33l-11 10-8 24 7 33 22 12 26-4 16-20-2-33-15-18z"/>
    <path fill="#e03428" d="M38 47l10-18 14 4-5 27z"/>
    <path fill="#f04b33" d="M57 37l11-14 14 9-7 29z"/>
    <path fill="#cf2b24" d="M75 43l13-8 13 15-9 24-18-8z"/>
    <path fill="#f2623e" d="M27 62l14-17 17 15-4 23-24 1z"/>
    <path fill="#b7231d" d="M53 59l23 4 2 31-23 8-10-18z"/>
    <path fill="#7e1a16" d="M76 64l22 9-1 17-18 15z"/>
    <path stroke="#f1b23d" stroke-width="4" d="M36 93l22 12 25-4"/>
    <path stroke="#ffad5b" stroke-width="3" d="M41 52l8-14M63 42l8-11M82 50l8-8"/>
  </g>
</svg>
